<svg xmlns="http://www.w3.org/2000/svg" xmlns:ev="http://www.w3.org/2001/xml-events" xmlns:xlink="http://www.w3.org/1999/xlink" id="Layer_1" width="13" height="12" x="0" y="0" enable-background="new -.396 -.229 13 12" version="1.1" viewBox="-0.396 -0.229 13 12" xml:space="preserve"><g><polygon fill="#666" points="8.207 6.125 6.793 7.541 10.793 11.541 12.207 10.125"/><path fill="#666" d="M4.917,2c1.608,0,2.917,1.308,2.917,2.916c0,1.608-1.309,2.916-2.917,2.916S2,6.522,2,4.916C2,3.31,3.309,2,4.917,2 M4.917,0C2.201,0,0,2.201,0,4.916c0,2.717,2.201,4.918,4.917,4.918s4.917-2.201,4.917-4.918C9.832,2.201,7.631,0,4.917,0L4.917,0z"/></g></svg>